<svg xmlns="http://www.w3.org/2000/svg" xmlns:xlink="http://www.w3.org/1999/xlink" width="500" zoomAndPan="magnify" viewBox="0 0 375 374.999991" height="500" preserveAspectRatio="xMidYMid meet" version="1.0"><defs><g/><clipPath id="be2671454b"><path d="M 30.992188 164 L 180.398438 164 L 180.398438 218.917969 L 30.992188 218.917969 Z M 30.992188 164 " clip-rule="nonzero"/></clipPath><clipPath id="4bba9f84de"><path d="M 89 140.167969 L 98 140.167969 L 98 150 L 89 150 Z M 89 140.167969 " clip-rule="nonzero"/></clipPath></defs><g clip-path="url(#be2671454b)"><path fill="#040606" d="M 33.792969 205.871094 C 37.636719 207.820312 41.921875 208.742188 46.128906 209.632812 C 51.523438 210.777344 56.933594 211.367188 62.421875 211.789062 C 67.652344 212.183594 72.820312 212.691406 78.007812 213.476562 C 80.613281 213.871094 83.214844 214.289062 85.835938 214.609375 C 87.652344 214.832031 89.890625 215.285156 91.941406 215.285156 C 92.226562 214.976562 92.53125 214.675781 92.832031 214.390625 C 87.898438 213.640625 82.949219 212.894531 78.058594 211.839844 C 75.511719 211.292969 72.972656 210.460938 70.378906 210.148438 C 67.890625 209.847656 65.355469 209.914062 62.84375 209.738281 C 52.925781 209.050781 43.144531 206.960938 33.785156 203.609375 C 33.6875 204.339844 33.765625 205.230469 33.792969 205.871094 Z M 93.695312 213.652344 C 93.902344 213.480469 93.910156 213.488281 94.128906 213.324219 C 91.945312 212.347656 89.5 212.195312 87.28125 211.292969 C 84.917969 210.328125 82.617188 209.277344 80.199219 208.457031 C 74.894531 206.664062 69.332031 205.945312 63.824219 205.074219 C 58.375 204.207031 52.925781 203.234375 47.441406 202.632812 C 44.699219 202.335938 41.945312 202.140625 39.1875 202.160156 C 38.46875 202.167969 37.753906 202.1875 37.035156 202.21875 C 36.375 202.253906 34.765625 202.125 34.320312 202.433594 C 34.269531 202.472656 34.21875 202.511719 34.175781 202.570312 C 43.648438 205.957031 53.539062 208.042969 63.585938 208.675781 C 65.96875 208.824219 68.378906 208.761719 70.746094 209.082031 C 72.859375 209.371094 74.917969 210 77.003906 210.46875 C 82.28125 211.671875 87.636719 212.480469 92.980469 213.296875 C 93.28125 213.339844 93.660156 213.40625 93.695312 213.652344 Z M 94.246094 215.035156 C 95.433594 214.730469 96.398438 213.894531 97.398438 213.226562 C 98.152344 212.71875 98.976562 212.371094 99.757812 211.921875 C 97.460938 212.453125 95.375 213.585938 93.640625 215.160156 C 93.84375 215.128906 94.046875 215.082031 94.246094 215.035156 Z M 77.300781 188.019531 C 77.207031 187.9375 77.105469 187.859375 77 187.773438 C 72.402344 186.152344 67.597656 184.953125 62.808594 184.074219 C 58.761719 183.339844 54.617188 182.855469 50.5 183.011719 C 48.550781 183.085938 46.609375 183.3125 44.71875 183.820312 C 43.824219 184.058594 42.953125 184.367188 42.109375 184.765625 C 42.027344 184.800781 41.9375 184.855469 41.835938 184.917969 C 43.066406 185.105469 44.28125 185.316406 45.503906 185.535156 C 49.71875 186.289062 53.910156 187.175781 58.066406 188.207031 C 68.488281 190.773438 79.167969 194.070312 88.347656 199.78125 C 90.433594 201.078125 92.484375 202.550781 94.3125 204.238281 C 94.367188 204.289062 94.429688 204.34375 94.488281 204.394531 C 96.398438 206.191406 98.066406 208.230469 99.269531 210.574219 C 99.324219 210.683594 99.585938 210.722656 99.574219 210.820312 C 99.8125 210.761719 99.820312 210.773438 100.058594 210.722656 C 95.136719 201.148438 85.425781 194.652344 77.300781 188.019531 Z M 101.175781 202.886719 C 103.214844 199.808594 106.691406 197.902344 109.929688 196.222656 C 126.839844 187.417969 143.308594 177.722656 159.980469 168.480469 C 160.121094 168.402344 160.261719 168.324219 160.402344 168.25 C 159.488281 168.609375 158.570312 168.988281 157.664062 169.398438 C 155.574219 170.347656 153.460938 171.257812 151.355469 172.167969 C 146.203125 174.410156 141.046875 176.628906 135.933594 178.9375 C 125.757812 183.523438 114.9375 188.171875 106.097656 195.101562 C 104.128906 196.640625 100.671875 199.300781 100.539062 202.203125 C 100.769531 202.421875 100.980469 202.648438 101.175781 202.886719 Z M 105.121094 212.03125 C 105.117188 212.03125 105.117188 212.027344 105.113281 212.027344 C 105.113281 212.027344 105.113281 212.027344 105.113281 212.03125 C 105.117188 212.03125 105.117188 212.03125 105.121094 212.03125 Z M 105.421875 213.292969 C 105.792969 213.605469 106.160156 213.855469 106.542969 214.054688 C 106.605469 213.953125 106.710938 213.882812 106.859375 213.847656 C 107.074219 213.796875 107.285156 213.730469 107.492188 213.644531 C 107.304688 213.476562 107.113281 213.296875 106.921875 213.128906 C 106.574219 212.824219 106.101562 212.359375 105.667969 212.234375 C 105.125 212.070312 104.585938 211.921875 104.035156 211.78125 C 104.449219 212.339844 104.890625 212.835938 105.421875 213.292969 Z M 135.390625 207.714844 C 129.980469 206.964844 124.386719 206.621094 119.070312 208.164062 C 116.566406 208.894531 114.144531 210.023438 112.089844 211.65625 C 111.171875 212.382812 110.355469 213.199219 109.429688 213.847656 C 109.425781 213.847656 109.417969 213.855469 109.40625 213.863281 C 109.417969 213.855469 109.429688 213.855469 109.441406 213.855469 C 119.015625 211.289062 128.71875 209.25 138.523438 207.777344 C 143.054688 207.105469 147.480469 206.625 152.066406 206.832031 C 156.507812 207.027344 161.386719 207.4375 165.136719 204.605469 C 165.707031 204.175781 166.46875 204.980469 165.902344 205.410156 C 162.691406 207.832031 158.832031 208.164062 154.933594 208.0625 C 152.820312 208.003906 150.707031 207.832031 148.589844 207.84375 C 145.773438 207.871094 142.976562 208.253906 140.199219 208.652344 C 130.164062 210.097656 120.226562 212.144531 110.429688 214.734375 C 110.390625 214.742188 110.347656 214.742188 110.300781 214.738281 L 110.332031 214.765625 C 110.363281 214.757812 110.394531 214.75 110.429688 214.734375 C 112.863281 214.746094 115.300781 214.710938 117.730469 214.699219 C 123.320312 214.675781 128.789062 214.390625 134.292969 213.367188 C 139.222656 212.457031 144.261719 210.554688 149.335938 211.074219 C 152.265625 211.375 154.976562 211.804688 157.921875 211.328125 C 160.679688 210.882812 163.347656 210.023438 166.046875 209.351562 C 168.480469 208.742188 170.921875 208.535156 173.386719 208.125 C 174.425781 207.953125 175.507812 207.726562 176.414062 207.183594 C 176.703125 207.015625 176.929688 206.785156 177.148438 206.554688 C 177.09375 206.472656 177.066406 206.382812 177.0625 206.265625 C 176.992188 204.535156 176.6875 202.902344 176.152344 201.269531 C 169.785156 202.109375 163.425781 202.957031 157.054688 203.808594 C 150.988281 204.609375 144.652344 206.0625 138.519531 205.621094 C 132.4375 205.179688 126.597656 203.484375 120.480469 204.644531 C 115.34375 205.621094 110.601562 208.042969 106.761719 211.566406 C 107.421875 211.996094 108.042969 212.511719 108.644531 213.078125 C 110.164062 212.132812 111.4375 210.664062 112.917969 209.714844 C 114.894531 208.429688 117.113281 207.523438 119.390625 206.921875 C 124.632812 205.535156 130.109375 205.867188 135.425781 206.609375 C 136.132812 206.703125 136.105469 207.8125 135.390625 207.714844 Z M 174.207031 200.039062 C 174.234375 199.886719 174.253906 199.722656 174.277344 199.570312 C 166.398438 197.710938 158.292969 197.964844 150.277344 198.636719 C 142.195312 199.328125 134.125 200.175781 126.050781 200.953125 C 125.910156 200.96875 125.808594 200.941406 125.726562 200.878906 C 123.910156 201.203125 122.09375 201.464844 120.277344 201.789062 C 118.695312 202.074219 117.152344 202.441406 115.703125 203.007812 L 115.695312 203.007812 L 115.695312 203.015625 C 114.699219 203.398438 113.730469 203.882812 112.832031 204.507812 C 112.464844 204.753906 112.105469 205.03125 111.753906 205.328125 C 110.40625 206.484375 109.160156 207.785156 107.945312 209.105469 C 111.074219 206.695312 114.664062 204.921875 118.515625 203.945312 C 124.324219 202.457031 129.886719 203.445312 135.722656 204.210938 C 142.539062 205.113281 149.308594 203.714844 156.0625 202.820312 C 162.136719 202.011719 168.210938 201.203125 174.285156 200.402344 C 174.210938 200.308594 174.183594 200.195312 174.207031 200.039062 Z M 172.230469 196.09375 C 170.59375 195.851562 168.914062 195.75 167.257812 195.597656 C 163.929688 195.3125 160.597656 195.097656 157.261719 195.074219 C 155.25 195.066406 153.253906 195.148438 151.277344 195.324219 C 151.03125 195.347656 150.796875 195.375 150.542969 195.398438 C 148.417969 195.609375 146.316406 195.925781 144.210938 196.328125 C 142.117188 196.738281 140.023438 197.234375 137.929688 197.808594 C 136.320312 198.246094 134.71875 198.703125 133.117188 199.148438 C 139.078125 198.546875 145.046875 197.957031 151.023438 197.46875 C 158.808594 196.839844 166.667969 196.679688 174.328125 198.445312 C 174.269531 197.265625 173.769531 196.3125 172.230469 196.09375 Z M 165.871094 190.78125 C 167.113281 190.609375 168.347656 190.441406 169.585938 190.214844 C 171.238281 189.890625 172.652344 189.738281 173.003906 187.679688 C 173.246094 186.1875 173.320312 184.589844 173.371094 183.039062 C 171.949219 184.023438 169.972656 184.425781 168.433594 184.945312 C 165.859375 185.8125 163.253906 186.609375 160.640625 187.367188 C 155.292969 188.90625 149.898438 190.300781 144.535156 191.785156 C 136.101562 194.136719 127.707031 196.796875 119.894531 200.734375 C 119.9375 200.726562 119.976562 200.71875 120.011719 200.714844 C 123.449219 200.097656 126.875 199.617188 130.269531 198.757812 C 133.875 197.835938 137.425781 196.734375 141.035156 195.835938 C 144.359375 195.019531 147.699219 194.507812 151.050781 194.230469 C 155.882812 192.597656 160.820312 191.476562 165.871094 190.78125 Z M 171.242188 182.859375 C 169.636719 183.003906 168.023438 183.007812 166.414062 183.167969 C 160.191406 183.785156 153.917969 185.25 147.863281 186.761719 C 137.015625 189.480469 126.539062 193.339844 116.367188 197.953125 C 114.761719 199.132812 113.214844 200.390625 111.746094 201.746094 C 109.257812 204.03125 107.03125 206.367188 106.113281 209.472656 C 107.933594 207.449219 109.777344 205.355469 111.941406 203.757812 C 112.984375 202.984375 114.128906 202.402344 115.3125 201.949219 C 119.445312 199.542969 123.789062 197.5625 128.238281 195.851562 C 132.699219 194.140625 137.261719 192.703125 141.855469 191.390625 C 147.003906 189.914062 152.183594 188.582031 157.34375 187.148438 C 159.972656 186.40625 162.59375 185.648438 165.191406 184.835938 C 166.390625 184.457031 167.582031 184.0625 168.769531 183.660156 C 169.527344 183.398438 170.46875 183.175781 171.34375 182.851562 C 171.308594 182.851562 171.277344 182.851562 171.242188 182.859375 Z M 105.414062 194.09375 C 103.238281 192.292969 100.761719 190.8125 98.367188 189.339844 C 94.585938 187.007812 90.714844 184.820312 86.800781 182.734375 C 77.859375 177.960938 68.566406 173.445312 58.84375 170.539062 C 55.40625 169.515625 51.636719 168.496094 47.984375 168.65625 C 50.8125 170.085938 53.660156 171.492188 56.488281 172.929688 C 60.046875 174.183594 63.445312 176.015625 66.769531 177.761719 C 70.453125 179.699219 74.207031 181.6875 77.574219 184.152344 C 83.140625 188.242188 88.789062 192.273438 94.097656 196.695312 C 95.398438 197.769531 96.679688 198.882812 97.945312 200 C 98.4375 200.4375 99 200.882812 99.558594 201.339844 C 99.90625 199.875 100.882812 198.527344 101.921875 197.382812 C 98.714844 194.097656 94.816406 191.738281 90.421875 190.414062 C 89.734375 190.214844 90.0625 189.148438 90.75 189.355469 C 95.304688 190.726562 99.359375 193.1875 102.695312 196.585938 C 102.753906 196.523438 102.8125 196.464844 102.882812 196.402344 C 103.703125 195.605469 104.574219 194.859375 105.476562 194.144531 C 105.460938 194.128906 105.4375 194.109375 105.414062 194.09375 Z M 39.019531 190.582031 C 46.84375 190.71875 54.617188 191.066406 62.296875 192.738281 C 69.789062 194.363281 77.066406 196.761719 84.476562 198.695312 C 80.976562 196.886719 77.320312 195.429688 73.949219 194.171875 C 66.386719 191.359375 58.539062 189.273438 50.636719 187.648438 C 50.574219 187.859375 50.398438 188.027344 50.105469 187.992188 C 46.171875 187.554688 42.300781 188.453125 39.019531 190.582031 Z M 38.363281 195.328125 C 55.066406 192.195312 73.035156 196.230469 88.710938 201.988281 C 89.546875 202.292969 90.390625 202.605469 91.21875 202.933594 C 90.019531 202.003906 88.753906 201.148438 87.441406 200.355469 C 87.316406 200.464844 70.835938 195.777344 62.632812 193.949219 C 56.433594 192.566406 50.179688 192.050781 43.886719 191.824219 C 43.859375 191.960938 43.773438 192.097656 43.605469 192.179688 C 41.808594 193.160156 40.066406 194.207031 38.363281 195.328125 Z M 37.597656 196.828125 C 37.382812 197.253906 37.222656 197.632812 37.097656 198.019531 C 41.902344 196.597656 46.914062 195.976562 51.925781 196.273438 C 57.507812 196.609375 62.921875 198.136719 68.230469 199.8125 C 73.488281 201.46875 78.734375 203.136719 83.960938 204.871094 C 88.480469 206.363281 92.878906 208.136719 96.546875 211.238281 C 96.761719 211.417969 97.757812 211.351562 98.324219 211.164062 C 98.316406 211.148438 98.300781 211.132812 98.292969 211.109375 C 97.160156 208.902344 95.640625 206.949219 93.859375 205.214844 C 93.792969 205.203125 93.738281 205.183594 93.679688 205.160156 C 89.316406 203.140625 84.648438 201.652344 80.0625 200.300781 C 71.199219 197.675781 62.015625 195.832031 52.765625 195.492188 C 47.699219 195.308594 42.625 195.601562 37.664062 196.601562 C 37.660156 196.675781 37.640625 196.757812 37.597656 196.828125 Z M 67.261719 201.945312 C 63.203125 201.777344 59.140625 201.621094 55.089844 201.46875 C 51.21875 201.328125 47.347656 201.179688 43.488281 201.03125 C 41.746094 200.96875 39.964844 201.023438 38.234375 200.820312 C 37.707031 200.757812 37.183594 200.585938 36.648438 200.550781 C 35.941406 200.496094 35.691406 200.683594 35.449219 201.109375 C 37.855469 200.800781 40.492188 201.007812 42.816406 201.132812 C 49.171875 201.464844 55.460938 202.628906 61.730469 203.621094 C 67.570312 204.550781 73.546875 205.222656 79.214844 206.972656 C 82.089844 207.855469 84.820312 209.085938 87.609375 210.234375 C 90.082031 211.25 92.796875 211.371094 95.191406 212.605469 C 95.46875 212.4375 95.75 212.28125 96.03125 212.128906 C 95.933594 212.117188 95.828125 212.074219 95.742188 211.996094 C 91.984375 208.824219 87.359375 207.140625 82.75 205.640625 C 81.289062 205.167969 79.832031 204.691406 78.375 204.226562 C 78.289062 204.339844 72.277344 202.164062 67.261719 201.945312 Z M 31.785156 205.535156 C 31.917969 205.199219 32.28125 205.039062 32.609375 205.226562 C 32.625 205.234375 32.640625 205.246094 32.65625 205.253906 C 32.570312 203.683594 32.417969 201.738281 34.058594 201.359375 C 34.074219 201.351562 34.089844 201.34375 34.117188 201.34375 C 34.125 201.308594 34.132812 201.285156 34.144531 201.253906 C 34.542969 200.460938 34.777344 199.546875 35.71875 199.363281 C 35.816406 199.339844 35.921875 199.328125 36.019531 199.324219 C 36.132812 199.402344 36.277344 199.4375 36.441406 199.386719 L 36.621094 199.328125 C 37.605469 199.398438 38.710938 199.746094 39.597656 199.773438 L 52.597656 200.261719 C 56.914062 200.425781 61.234375 200.5625 65.550781 200.75 C 66.347656 200.78125 67.152344 200.816406 67.945312 200.890625 C 67.9375 200.882812 67.921875 200.882812 67.90625 200.875 C 62.796875 199.257812 57.601562 197.777344 52.230469 197.410156 C 46.945312 197.054688 41.679688 197.742188 36.621094 199.328125 C 36.417969 199.3125 36.214844 199.3125 36.019531 199.324219 C 35.828125 199.1875 35.730469 198.914062 35.78125 198.679688 C 35.914062 198.039062 36.097656 197.457031 36.351562 196.886719 C 36.203125 196.921875 36.054688 196.949219 35.90625 196.984375 C 35.25 197.144531 35.035156 196.304688 35.515625 195.960938 C 37.625 194.4375 39.808594 193.039062 42.074219 191.765625 C 40.488281 191.722656 38.910156 191.6875 37.320312 191.671875 C 36.867188 191.664062 36.570312 191.007812 36.953125 190.710938 C 39.761719 188.492188 43.050781 187.160156 46.511719 186.839844 C 46.375 186.820312 46.246094 186.789062 46.105469 186.769531 C 44.101562 186.394531 42.015625 186.214844 40.019531 185.75 C 39.492188 185.628906 39.527344 184.773438 40.050781 184.675781 C 40.730469 184.558594 41.703125 183.707031 42.402344 183.429688 C 43.128906 183.132812 43.878906 182.886719 44.640625 182.691406 C 46.367188 182.25 48.140625 182.027344 49.910156 181.929688 C 54.050781 181.695312 58.222656 182.15625 62.292969 182.867188 C 66.4375 183.578125 70.589844 184.542969 74.621094 185.804688 C 71.035156 182.84375 67.417969 179.917969 63.296875 177.714844 C 60.859375 176.421875 58.410156 175.160156 55.953125 173.914062 C 55.871094 173.886719 55.78125 173.851562 55.703125 173.824219 C 55.589844 173.789062 55.507812 173.730469 55.453125 173.664062 C 52.28125 172.058594 49.109375 170.472656 45.953125 168.871094 C 45.703125 168.742188 45.648438 168.527344 45.691406 168.316406 C 45.644531 168.050781 45.761719 167.78125 46.101562 167.726562 C 49.667969 167.203125 53.359375 167.933594 56.804688 168.816406 C 61.59375 170.054688 66.242188 171.835938 70.789062 173.769531 C 80.105469 177.738281 89.136719 182.457031 97.800781 187.6875 C 100.675781 189.429688 103.632812 191.179688 106.226562 193.335938 C 106.273438 193.378906 106.320312 193.429688 106.34375 193.480469 C 106.367188 193.464844 112.703125 189.332031 114.675781 188.210938 C 125.488281 182.089844 136.972656 177.191406 148.363281 172.261719 C 150.964844 171.136719 153.574219 170.011719 156.175781 168.855469 C 160.007812 167.140625 163.949219 165.789062 167.832031 164.203125 C 168.179688 164.058594 168.492188 164.261719 168.613281 164.527344 C 168.613281 164.535156 168.621094 164.535156 168.621094 164.535156 C 168.636719 164.570312 168.636719 164.601562 168.640625 164.636719 C 168.675781 164.832031 168.597656 165.050781 168.363281 165.179688 C 165.921875 166.488281 163.671875 168.296875 161.417969 169.878906 C 157.710938 172.46875 154.023438 175.078125 150.300781 177.652344 C 141.203125 183.9375 131.136719 188.476562 121.757812 194.324219 C 121.652344 194.382812 121.542969 194.453125 121.4375 194.515625 C 129.265625 191.214844 137.277344 188.390625 145.511719 186.21875 C 151.691406 184.589844 157.960938 183.296875 164.292969 182.351562 C 165.835938 182.121094 167.355469 182.007812 168.921875 181.910156 C 169.898438 181.851562 170.886719 181.800781 171.867188 181.6875 C 172.292969 181.636719 173.238281 181.65625 173.5625 181.351562 C 173.730469 181.191406 173.984375 181.152344 174.195312 181.230469 C 174.203125 181.230469 174.203125 181.230469 174.203125 181.230469 C 174.34375 181.308594 174.457031 181.433594 174.507812 181.574219 C 174.507812 181.582031 174.515625 181.582031 174.515625 181.589844 C 174.523438 181.632812 174.527344 181.691406 174.527344 181.746094 L 174.523438 181.863281 C 174.445312 184.085938 174.394531 186.460938 174.0625 188.660156 C 173.730469 190.878906 171.34375 191.019531 169.507812 191.355469 C 166.382812 191.921875 163.21875 192.222656 160.105469 192.890625 C 158.574219 193.207031 157.054688 193.582031 155.542969 194.007812 C 158.019531 193.957031 160.507812 194.011719 163.011719 194.164062 C 164.914062 194.285156 166.8125 194.441406 168.714844 194.617188 C 170.230469 194.761719 172.097656 194.660156 173.539062 195.195312 C 175.613281 195.972656 175.632812 198.191406 175.320312 200.074219 C 175.308594 200.148438 175.285156 200.210938 175.25 200.269531 C 175.632812 200.222656 176.015625 200.171875 176.402344 200.117188 C 176.71875 200.078125 176.960938 200.21875 177.070312 200.53125 C 177.652344 202.183594 178 203.859375 178.132812 205.589844 C 178.199219 205.554688 178.265625 205.515625 178.339844 205.476562 C 178.59375 205.363281 178.976562 205.414062 179.097656 205.703125 C 179.566406 206.828125 181.210938 208.382812 179.902344 209.597656 C 179.011719 210.433594 177.0625 210.589844 175.917969 210.890625 C 172.070312 211.867188 168.164062 212.625 164.257812 213.316406 C 160.738281 213.945312 157.203125 214.511719 153.664062 215.015625 C 152.191406 215.222656 150.5 215.691406 149.003906 215.601562 L 148.945312 215.601562 C 143.589844 215.339844 138.1875 216.78125 132.855469 217.3125 C 128.4375 217.75 124.015625 218.105469 119.582031 218.414062 C 113.335938 218.835938 107.148438 219.132812 100.917969 218.730469 C 92.550781 218.183594 84.171875 217.753906 75.800781 217.28125 C 68.105469 216.847656 60.441406 215.953125 52.792969 215.003906 C 48.382812 214.457031 43.957031 213.890625 39.578125 213.128906 C 38.144531 212.878906 36.722656 212.597656 35.296875 212.324219 C 33.996094 212.078125 31.382812 211.78125 31.011719 210.179688 C 31.003906 210.121094 30.996094 210.066406 31 210.015625 C 30.953125 208.4375 31.203125 207.003906 31.785156 205.535156 " fill-opacity="1" fill-rule="nonzero"/></g><path fill="#040606" d="M 167.832031 164.203125 C 168.179688 164.058594 168.492188 164.261719 168.613281 164.527344 C 168.507812 164.242188 168.1875 164.027344 167.832031 164.203125 " fill-opacity="1" fill-rule="nonzero"/><path fill="#040606" d="M 105.113281 212.027344 C 105.113281 212.027344 105.113281 212.027344 105.113281 212.03125 C 105.117188 212.03125 105.117188 212.03125 105.121094 212.03125 C 105.117188 212.03125 105.117188 212.027344 105.113281 212.027344 " fill-opacity="1" fill-rule="nonzero"/><path fill="#040606" d="M 127.53125 160.839844 C 127.347656 161.183594 127.011719 161.691406 127.433594 162.007812 C 127.890625 162.355469 128.882812 162.023438 129.351562 161.871094 C 130.429688 161.515625 131.378906 160.890625 132.546875 160.886719 C 132.550781 160.886719 132.558594 160.886719 132.5625 160.886719 C 133.339844 161.796875 134.183594 162.640625 135.117188 163.390625 C 135.503906 163.703125 136.398438 164.640625 137.011719 164.339844 C 137.625 164.042969 137.296875 162.917969 137.214844 162.457031 C 137.003906 161.246094 136.65625 160.074219 136.75 158.839844 C 136.800781 158.839844 136.859375 158.816406 136.910156 158.773438 L 140.472656 155.847656 C 140.675781 155.683594 140.5625 155.398438 140.378906 155.335938 C 140.339844 155.28125 140.28125 155.242188 140.195312 155.226562 L 135.421875 154.484375 C 134.992188 152.597656 134.511719 150.722656 133.980469 148.863281 C 133.921875 148.652344 133.621094 148.636719 133.496094 148.789062 C 132.910156 149.511719 131.671875 152.890625 131.324219 153.691406 C 131.292969 153.671875 131.261719 153.648438 131.21875 153.648438 C 129.78125 153.691406 127.886719 154.148438 127.484375 154.242188 C 127.347656 154.273438 127.042969 154.304688 126.941406 154.445312 C 126.636719 154.867188 127.21875 155.285156 127.46875 155.539062 C 128.105469 156.199219 128.742188 156.859375 129.378906 157.515625 C 129.378906 157.523438 129.375 157.527344 129.371094 157.53125 C 128.757812 158.636719 128.125 159.726562 127.53125 160.839844 " fill-opacity="1" fill-rule="nonzero"/><path fill="#040606" d="M 102.707031 181.949219 C 102.683594 182.199219 102.609375 182.582031 102.9375 182.667969 C 103.292969 182.757812 103.800781 182.316406 104.042969 182.105469 C 104.59375 181.628906 105.003906 181.023438 105.695312 180.730469 C 105.699219 180.730469 105.703125 180.726562 105.707031 180.726562 C 106.394531 181.074219 107.101562 181.367188 107.84375 181.578125 C 108.148438 181.667969 108.910156 182.003906 109.199219 181.671875 C 109.492188 181.34375 109.019531 180.757812 108.855469 180.503906 C 108.429688 179.835938 107.933594 179.226562 107.683594 178.472656 C 107.714844 178.457031 107.742188 178.429688 107.765625 178.390625 L 109.15625 175.769531 C 109.234375 175.621094 109.097656 175.480469 108.972656 175.492188 C 108.9375 175.46875 108.890625 175.457031 108.835938 175.472656 L 105.820312 176.214844 C 105.097656 175.203125 104.351562 174.210938 103.574219 173.238281 C 103.488281 173.128906 103.304688 173.191406 103.269531 173.3125 C 103.101562 173.886719 103.199219 176.203125 103.191406 176.765625 C 103.171875 176.761719 103.140625 176.753906 103.117188 176.765625 C 102.273438 177.148438 101.265625 177.886719 101.046875 178.046875 C 100.976562 178.097656 100.800781 178.191406 100.777344 178.300781 C 100.699219 178.625 101.148438 178.730469 101.359375 178.820312 C 101.902344 179.050781 102.441406 179.285156 102.984375 179.515625 C 102.980469 179.523438 102.980469 179.523438 102.980469 179.53125 C 102.890625 180.335938 102.785156 181.140625 102.707031 181.949219 " fill-opacity="1" fill-rule="nonzero"/><path fill="#040606" d="M 87.460938 171.035156 C 87.574219 171.152344 87.738281 171.347656 87.917969 171.21875 C 88.109375 171.078125 88.101562 170.640625 88.097656 170.429688 C 88.089844 169.953125 87.957031 169.496094 88.097656 169.027344 C 88.097656 169.023438 88.097656 169.019531 88.097656 169.019531 C 88.558594 168.820312 89 168.585938 89.417969 168.300781 C 89.589844 168.183594 90.074219 167.941406 90.03125 167.65625 C 89.984375 167.375 89.496094 167.367188 89.300781 167.34375 C 88.789062 167.28125 88.277344 167.273438 87.796875 167.085938 C 87.804688 167.0625 87.800781 167.039062 87.789062 167.011719 L 87.058594 165.21875 C 87.019531 165.117188 86.890625 165.128906 86.84375 165.195312 C 86.816406 165.203125 86.792969 165.222656 86.777344 165.253906 L 85.890625 167.082031 C 85.082031 167.023438 84.277344 166.984375 83.464844 166.96875 C 83.375 166.964844 83.332031 167.085938 83.378906 167.152344 C 83.59375 167.480469 84.792969 168.394531 85.070312 168.632812 C 85.058594 168.640625 85.042969 168.652344 85.039062 168.667969 C 84.878906 169.25 84.828125 170.066406 84.816406 170.242188 C 84.8125 170.300781 84.789062 170.425781 84.832031 170.484375 C 84.960938 170.660156 85.199219 170.476562 85.332031 170.40625 C 85.675781 170.234375 86.019531 170.058594 86.359375 169.882812 C 86.363281 169.886719 86.363281 169.886719 86.367188 169.890625 C 86.730469 170.273438 87.089844 170.660156 87.460938 171.035156 " fill-opacity="1" fill-rule="nonzero"/><path fill="#040606" d="M 110.128906 162.070312 C 110.207031 162.152344 110.316406 162.285156 110.441406 162.195312 C 110.574219 162.101562 110.566406 161.800781 110.5625 161.660156 C 110.558594 161.332031 110.46875 161.019531 110.5625 160.699219 C 110.5625 160.699219 110.5625 160.699219 110.5625 160.695312 C 110.878906 160.558594 111.179688 160.398438 111.464844 160.207031 C 111.578125 160.125 111.910156 159.960938 111.882812 159.765625 C 111.851562 159.574219 111.515625 159.570312 111.382812 159.554688 C 111.035156 159.507812 110.6875 159.503906 110.355469 159.375 C 110.363281 159.363281 110.359375 159.34375 110.351562 159.328125 L 109.855469 158.105469 C 109.828125 158.035156 109.742188 158.042969 109.707031 158.089844 C 109.691406 158.09375 109.671875 158.105469 109.664062 158.128906 L 109.058594 159.375 C 108.507812 159.335938 107.957031 159.308594 107.40625 159.296875 C 107.34375 159.296875 107.3125 159.375 107.34375 159.421875 C 107.492188 159.644531 108.308594 160.269531 108.5 160.429688 C 108.492188 160.4375 108.480469 160.445312 108.476562 160.457031 C 108.367188 160.855469 108.335938 161.410156 108.328125 161.53125 C 108.324219 161.570312 108.304688 161.65625 108.335938 161.695312 C 108.425781 161.816406 108.585938 161.6875 108.679688 161.644531 C 108.910156 161.523438 109.144531 161.40625 109.378906 161.285156 C 109.378906 161.285156 109.382812 161.289062 109.382812 161.289062 C 109.628906 161.550781 109.875 161.816406 110.128906 162.070312 " fill-opacity="1" fill-rule="nonzero"/><path fill="#040606" d="M 81.089844 155.75 C 81.246094 155.796875 81.484375 155.886719 81.578125 155.6875 C 81.679688 155.46875 81.457031 155.089844 81.351562 154.910156 C 81.109375 154.5 80.769531 154.164062 80.664062 153.6875 C 80.664062 153.683594 80.664062 153.679688 80.664062 153.679688 C 80.96875 153.277344 81.238281 152.859375 81.464844 152.40625 C 81.558594 152.21875 81.859375 151.769531 81.683594 151.546875 C 81.507812 151.320312 81.078125 151.554688 80.894531 151.628906 C 80.417969 151.820312 79.96875 152.070312 79.457031 152.140625 C 79.453125 152.117188 79.4375 152.097656 79.414062 152.078125 L 77.902344 150.871094 C 77.816406 150.804688 77.710938 150.875 77.703125 150.957031 C 77.683594 150.976562 77.671875 151.007812 77.675781 151.042969 L 77.792969 153.070312 C 77.058594 153.414062 76.335938 153.777344 75.621094 154.160156 C 75.539062 154.203125 75.558594 154.328125 75.632812 154.363281 C 75.980469 154.542969 77.472656 154.75 77.832031 154.824219 C 77.824219 154.835938 77.816406 154.855469 77.824219 154.871094 C 77.96875 155.457031 78.320312 156.195312 78.394531 156.351562 C 78.421875 156.40625 78.460938 156.527344 78.527344 156.558594 C 78.726562 156.648438 78.84375 156.371094 78.929688 156.246094 C 79.140625 155.925781 79.355469 155.605469 79.566406 155.285156 C 79.570312 155.285156 79.574219 155.285156 79.574219 155.289062 C 80.078125 155.441406 80.582031 155.605469 81.089844 155.75 " fill-opacity="1" fill-rule="nonzero"/><g clip-path="url(#4bba9f84de)"><path fill="#040606" d="M 91.074219 149 C 91.050781 149.25 90.980469 149.632812 91.308594 149.71875 C 91.664062 149.808594 92.167969 149.371094 92.410156 149.160156 C 92.964844 148.683594 93.375 148.078125 94.0625 147.785156 C 94.066406 147.78125 94.070312 147.78125 94.074219 147.777344 C 94.761719 148.128906 95.46875 148.417969 96.210938 148.632812 C 96.515625 148.71875 97.277344 149.054688 97.570312 148.726562 C 97.859375 148.394531 97.386719 147.808594 97.222656 147.554688 C 96.800781 146.890625 96.300781 146.277344 96.050781 145.523438 C 96.082031 145.511719 96.113281 145.484375 96.132812 145.445312 L 97.523438 142.824219 C 97.605469 142.675781 97.464844 142.535156 97.339844 142.542969 C 97.304688 142.519531 97.257812 142.511719 97.207031 142.523438 L 94.1875 143.269531 C 93.464844 142.253906 92.71875 141.261719 91.945312 140.292969 C 91.855469 140.179688 91.675781 140.246094 91.636719 140.367188 C 91.46875 140.941406 91.570312 143.253906 91.558594 143.816406 C 91.539062 143.8125 91.511719 143.804688 91.484375 143.816406 C 90.640625 144.199219 89.632812 144.941406 89.417969 145.097656 C 89.34375 145.148438 89.171875 145.242188 89.144531 145.351562 C 89.066406 145.679688 89.515625 145.78125 89.726562 145.871094 C 90.269531 146.101562 90.808594 146.335938 91.351562 146.570312 C 91.351562 146.574219 91.351562 146.578125 91.351562 146.582031 C 91.257812 147.386719 91.152344 148.195312 91.074219 149 " fill-opacity="1" fill-rule="nonzero"/></g><g fill="#000000" fill-opacity="1"><g transform="translate(232.372577, 179.255878)"><g><path d="M 6.921875 0 C 5.640625 -1.84375 4.707031 -3.765625 4.125 -5.765625 C 3.507812 -7.734375 3.175781 -9.757812 3.125 -11.84375 C 3.039062 -13.914062 3.195312 -16.046875 3.59375 -18.234375 C 4 -20.421875 4.570312 -22.648438 5.3125 -24.921875 C 4.300781 -24.765625 3.410156 -24.773438 2.640625 -24.953125 C 1.867188 -25.140625 1.203125 -25.4375 0.640625 -25.84375 C 0.078125 -26.238281 -0.390625 -26.726562 -0.765625 -27.3125 C -1.128906 -27.90625 -1.40625 -28.535156 -1.59375 -29.203125 C -1.96875 -30.554688 -1.984375 -31.835938 -1.640625 -33.046875 C -1.296875 -34.242188 -0.734375 -35.226562 0.046875 -36 C 0.816406 -36.769531 1.707031 -37.238281 2.71875 -37.40625 C 3.707031 -37.5625 4.664062 -37.253906 5.59375 -36.484375 C 5.039062 -36.484375 4.550781 -36.335938 4.125 -36.046875 C 3.664062 -35.722656 3.273438 -35.320312 2.953125 -34.84375 C 2.640625 -34.363281 2.390625 -33.816406 2.203125 -33.203125 C 2.015625 -32.554688 1.90625 -31.914062 1.875 -31.28125 C 1.851562 -30.632812 1.910156 -30.035156 2.046875 -29.484375 C 2.171875 -28.890625 2.410156 -28.367188 2.765625 -27.921875 C 3.078125 -27.460938 3.503906 -27.113281 4.046875 -26.875 C 4.578125 -26.632812 5.210938 -26.554688 5.953125 -26.640625 C 6.253906 -27.703125 6.738281 -28.941406 7.40625 -30.359375 C 8.070312 -31.742188 8.859375 -33.035156 9.765625 -34.234375 C 10.640625 -35.441406 11.613281 -36.414062 12.6875 -37.15625 C 13.71875 -37.90625 14.78125 -38.160156 15.875 -37.921875 C 16.570312 -37.765625 17.082031 -37.40625 17.40625 -36.84375 C 17.71875 -36.25 17.847656 -35.554688 17.796875 -34.765625 C 17.742188 -33.960938 17.554688 -33.117188 17.234375 -32.234375 C 16.890625 -31.328125 16.410156 -30.460938 15.796875 -29.640625 C 15.179688 -28.816406 14.4375 -28.003906 13.5625 -27.203125 C 12.65625 -26.367188 11.722656 -25.820312 10.765625 -25.5625 C 10.410156 -24.789062 10.085938 -23.765625 9.796875 -22.484375 C 9.503906 -21.171875 9.265625 -19.820312 9.078125 -18.4375 C 8.890625 -17.050781 8.785156 -15.71875 8.765625 -14.4375 C 8.710938 -13.15625 8.773438 -12.15625 8.953125 -11.4375 L 16.875 -22.6875 C 17.332031 -23.351562 17.800781 -24.003906 18.28125 -24.640625 C 18.757812 -25.253906 19.226562 -25.867188 19.6875 -26.484375 C 20 -27.523438 20.359375 -28.550781 20.765625 -29.5625 C 21.160156 -30.570312 21.585938 -31.53125 22.046875 -32.4375 C 22.492188 -33.34375 22.972656 -34.171875 23.484375 -34.921875 C 23.984375 -35.671875 24.503906 -36.296875 25.046875 -36.796875 C 25.679688 -37.410156 26.347656 -37.828125 27.046875 -38.046875 C 27.710938 -38.222656 28.3125 -38.035156 28.84375 -37.484375 C 29.082031 -37.242188 29.226562 -36.976562 29.28125 -36.6875 C 29.300781 -36.363281 29.257812 -36.03125 29.15625 -35.6875 C 29.019531 -35.226562 28.804688 -34.769531 28.515625 -34.3125 C 28.203125 -33.863281 27.859375 -33.441406 27.484375 -33.046875 C 27.296875 -32.828125 27.117188 -32.640625 26.953125 -32.484375 L 26.4375 -31.953125 C 26.25 -31.796875 26.101562 -31.664062 26 -31.5625 L 25.640625 -31.203125 C 25.128906 -29.921875 24.625 -28.492188 24.125 -26.921875 C 23.582031 -25.347656 23.140625 -23.707031 22.796875 -22 C 22.421875 -20.269531 22.179688 -18.5 22.078125 -16.6875 C 21.941406 -14.863281 22.019531 -13.085938 22.3125 -11.359375 L 22.3125 -11.4375 C 22.851562 -12.5625 23.535156 -13.882812 24.359375 -15.40625 C 25.179688 -16.925781 26.113281 -18.523438 27.15625 -20.203125 C 28.195312 -21.878906 29.304688 -23.570312 30.484375 -25.28125 C 31.648438 -26.957031 32.863281 -28.546875 34.125 -30.046875 C 35.21875 -31.316406 36.3125 -32.472656 37.40625 -33.515625 C 38.5 -34.535156 39.550781 -35.335938 40.5625 -35.921875 C 41.570312 -36.484375 42.546875 -36.789062 43.484375 -36.84375 C 44.410156 -36.894531 45.265625 -36.597656 46.046875 -35.953125 C 46.359375 -35.660156 46.597656 -35.300781 46.765625 -34.875 C 46.921875 -34.445312 46.972656 -33.96875 46.921875 -33.4375 C 46.835938 -32.90625 46.664062 -32.347656 46.40625 -31.765625 C 46.101562 -31.171875 45.675781 -30.582031 45.125 -30 C 44.769531 -30.988281 44.316406 -31.628906 43.765625 -31.921875 C 43.171875 -32.210938 42.488281 -32.210938 41.71875 -31.921875 C 40.945312 -31.628906 40.109375 -31.082031 39.203125 -30.28125 C 38.265625 -29.457031 37.289062 -28.429688 36.28125 -27.203125 C 35 -25.648438 33.664062 -23.847656 32.28125 -21.796875 C 30.894531 -19.722656 29.507812 -17.5 28.125 -15.125 C 26.738281 -12.71875 25.378906 -10.238281 24.046875 -7.6875 C 22.679688 -5.09375 21.410156 -2.53125 20.234375 0 C 19.066406 -1.175781 18.203125 -2.644531 17.640625 -4.40625 C 17.078125 -6.132812 16.785156 -7.957031 16.765625 -9.875 C 16.710938 -11.769531 16.882812 -13.664062 17.28125 -15.5625 C 17.65625 -17.425781 18.203125 -19.078125 18.921875 -20.515625 C 17.773438 -19.316406 16.664062 -17.878906 15.59375 -16.203125 C 14.53125 -14.492188 13.503906 -12.707031 12.515625 -10.84375 C 11.503906 -8.976562 10.53125 -7.097656 9.59375 -5.203125 C 8.664062 -3.304688 7.773438 -1.570312 6.921875 0 Z M 26.203125 -33.046875 C 27.054688 -33.710938 27.671875 -34.390625 28.046875 -35.078125 C 28.410156 -35.773438 28.539062 -36.429688 28.4375 -37.046875 C 28.0625 -36.585938 27.675781 -36 27.28125 -35.28125 C 26.882812 -34.53125 26.523438 -33.785156 26.203125 -33.046875 Z M 11.59375 -28 C 11.945312 -28.207031 12.335938 -28.566406 12.765625 -29.078125 C 13.191406 -29.554688 13.617188 -30.117188 14.046875 -30.765625 C 14.472656 -31.378906 14.867188 -32.019531 15.234375 -32.6875 C 15.609375 -33.351562 15.914062 -33.976562 16.15625 -34.5625 C 16.394531 -35.125 16.539062 -35.585938 16.59375 -35.953125 C 16.65625 -36.328125 16.578125 -36.53125 16.359375 -36.5625 C 15.984375 -36.5625 15.554688 -36.226562 15.078125 -35.5625 C 14.597656 -34.863281 14.132812 -34.050781 13.6875 -33.125 C 13.195312 -32.1875 12.769531 -31.238281 12.40625 -30.28125 C 12.03125 -29.320312 11.757812 -28.5625 11.59375 -28 Z M 11.59375 -28 "/></g></g></g><g fill="#000000" fill-opacity="1"><g transform="translate(263.929441, 179.255878)"><g><path d="M 1.40625 0.046875 C 0.625 -0.140625 -0.0546875 -0.566406 -0.640625 -1.234375 C -1.222656 -1.878906 -1.476562 -2.84375 -1.40625 -4.125 C -1.34375 -4.863281 -1.179688 -5.648438 -0.921875 -6.484375 C -0.679688 -7.304688 -0.375 -8.117188 0 -8.921875 C 0.375 -9.691406 0.773438 -10.425781 1.203125 -11.125 C 1.628906 -11.8125 2.039062 -12.394531 2.4375 -12.875 C 3.34375 -14 4.34375 -15.039062 5.4375 -16 C 6.507812 -16.957031 7.617188 -17.8125 8.765625 -18.5625 C 9.878906 -19.28125 11 -19.851562 12.125 -20.28125 C 13.238281 -20.707031 14.300781 -20.90625 15.3125 -20.875 C 15.6875 -20.875 16.019531 -20.78125 16.3125 -20.59375 C 16.613281 -20.382812 16.84375 -20.117188 17 -19.796875 C 17.238281 -19.347656 17.28125 -18.828125 17.125 -18.234375 C 16.957031 -17.648438 16.445312 -17.144531 15.59375 -16.71875 C 15.757812 -17.28125 15.800781 -17.757812 15.71875 -18.15625 C 15.613281 -18.53125 15.414062 -18.8125 15.125 -19 C 14.53125 -19.34375 13.726562 -19.238281 12.71875 -18.6875 C 11.4375 -17.90625 10.289062 -17.035156 9.28125 -16.078125 C 8.269531 -15.085938 7.414062 -14.078125 6.71875 -13.046875 C 5.96875 -11.921875 5.421875 -10.921875 5.078125 -10.046875 C 4.734375 -9.140625 4.570312 -8.351562 4.59375 -7.6875 C 4.59375 -7.019531 4.769531 -6.5 5.125 -6.125 C 5.4375 -5.71875 5.890625 -5.488281 6.484375 -5.4375 C 7.117188 -5.382812 7.878906 -5.519531 8.765625 -5.84375 C 9.640625 -6.15625 10.640625 -6.726562 11.765625 -7.5625 C 11.523438 -8.25 11.5 -9.101562 11.6875 -10.125 C 11.863281 -11.132812 12.179688 -12.078125 12.640625 -12.953125 C 13.015625 -13.734375 13.453125 -14.375 13.953125 -14.875 C 14.460938 -15.382812 14.957031 -15.585938 15.4375 -15.484375 C 15.84375 -15.398438 16.003906 -14.890625 15.921875 -13.953125 C 15.835938 -13.078125 15.53125 -12 15 -10.71875 C 14.863281 -10.394531 14.71875 -10.078125 14.5625 -9.765625 C 14.394531 -9.441406 14.207031 -9.117188 14 -8.796875 C 14.050781 -8.265625 14.304688 -8.078125 14.765625 -8.234375 C 15.210938 -8.398438 15.726562 -8.695312 16.3125 -9.125 C 16.875 -9.550781 17.421875 -10.003906 17.953125 -10.484375 C 18.222656 -10.722656 18.4375 -10.921875 18.59375 -11.078125 C 18.726562 -11.234375 18.820312 -11.34375 18.875 -11.40625 L 18.921875 -11.3125 C 18.816406 -11 18.628906 -10.613281 18.359375 -10.15625 C 18.085938 -9.675781 17.769531 -9.195312 17.40625 -8.71875 C 17 -8.207031 16.582031 -7.726562 16.15625 -7.28125 C 15.726562 -6.820312 15.289062 -6.472656 14.84375 -6.234375 C 14.414062 -5.972656 13.972656 -5.84375 13.515625 -5.84375 C 13.085938 -5.84375 12.71875 -6.039062 12.40625 -6.4375 C 11.789062 -5.425781 11.03125 -4.492188 10.125 -3.640625 C 9.21875 -2.785156 8.253906 -2.050781 7.234375 -1.4375 C 6.203125 -0.820312 5.175781 -0.382812 4.15625 -0.125 C 3.144531 0.164062 2.226562 0.222656 1.40625 0.046875 Z M 1.40625 0.046875 "/></g></g></g><g fill="#000000" fill-opacity="1"><g transform="translate(281.84766, 179.255878)"><g><path d="M 6.3125 -14.5625 C 6.613281 -15.0625 6.859375 -15.523438 7.046875 -15.953125 C 7.222656 -16.378906 7.328125 -16.796875 7.359375 -17.203125 C 7.390625 -17.597656 7.335938 -18 7.203125 -18.40625 C 7.035156 -18.800781 6.796875 -19.253906 6.484375 -19.765625 C 7.492188 -20.378906 8.375 -20.789062 9.125 -21 C 9.84375 -21.1875 10.425781 -21.210938 10.875 -21.078125 C 11.488281 -20.890625 11.890625 -20.460938 12.078125 -19.796875 C 12.234375 -19.128906 12.207031 -18.332031 12 -17.40625 C 12.457031 -17.769531 13.003906 -18.207031 13.640625 -18.71875 C 14.253906 -19.226562 14.921875 -19.695312 15.640625 -20.125 C 16.335938 -20.519531 17.054688 -20.828125 17.796875 -21.046875 C 18.515625 -21.253906 19.195312 -21.253906 19.84375 -21.046875 C 20.507812 -20.804688 20.988281 -20.390625 21.28125 -19.796875 C 21.570312 -19.179688 21.734375 -18.503906 21.765625 -17.765625 C 21.765625 -17.015625 21.644531 -16.238281 21.40625 -15.4375 C 21.164062 -14.632812 20.816406 -13.914062 20.359375 -13.28125 C 19.910156 -12.613281 19.378906 -12.09375 18.765625 -11.71875 C 18.148438 -11.320312 17.484375 -11.160156 16.765625 -11.234375 C 16.460938 -11.265625 16.179688 -11.347656 15.921875 -11.484375 C 15.628906 -11.585938 15.390625 -11.773438 15.203125 -12.046875 C 15.015625 -12.304688 14.921875 -12.648438 14.921875 -13.078125 C 14.890625 -13.484375 14.992188 -13.988281 15.234375 -14.59375 C 15.660156 -14.351562 16.113281 -14.25 16.59375 -14.28125 C 17.050781 -14.28125 17.476562 -14.359375 17.875 -14.515625 C 18.28125 -14.679688 18.628906 -14.921875 18.921875 -15.234375 C 19.179688 -15.535156 19.3125 -15.867188 19.3125 -16.234375 C 19.34375 -17.035156 19.238281 -17.609375 19 -17.953125 C 18.726562 -18.304688 18.367188 -18.492188 17.921875 -18.515625 C 17.460938 -18.515625 16.984375 -18.410156 16.484375 -18.203125 C 15.953125 -17.960938 15.414062 -17.679688 14.875 -17.359375 C 14.34375 -17.035156 13.863281 -16.703125 13.4375 -16.359375 C 12.988281 -16.015625 12.644531 -15.734375 12.40625 -15.515625 C 11.5 -14.691406 10.75 -13.835938 10.15625 -12.953125 L 2.125 -0.125 L -3.40625 -0.125 Z M 6.4375 -19.796875 L 6.484375 -19.765625 L 6.359375 -19.6875 Z M 6.4375 -19.796875 "/></g></g></g><g fill="#000000" fill-opacity="1"><g transform="translate(302.725584, 179.255878)"><g><path d="M 1.875 -0.3125 C 1.050781 -0.289062 0.375 -0.585938 -0.15625 -1.203125 C -0.6875 -1.785156 -0.953125 -2.820312 -0.953125 -4.3125 C -0.984375 -5.4375 -0.707031 -6.679688 -0.125 -8.046875 C 0.46875 -9.398438 1.21875 -10.757812 2.125 -12.125 C 2.757812 -13.101562 3.582031 -14.140625 4.59375 -15.234375 C 5.613281 -16.304688 6.734375 -17.296875 7.953125 -18.203125 C 9.179688 -19.109375 10.488281 -19.851562 11.875 -20.4375 C 13.238281 -21 14.597656 -21.253906 15.953125 -21.203125 C 16.597656 -21.171875 17.109375 -21.050781 17.484375 -20.84375 C 17.859375 -20.625 18.125 -20.367188 18.28125 -20.078125 C 18.4375 -19.785156 18.554688 -19.492188 18.640625 -19.203125 C 18.691406 -18.878906 18.71875 -18.570312 18.71875 -18.28125 L 18.71875 -17.84375 C 18.71875 -17.707031 18.707031 -17.585938 18.6875 -17.484375 L 20.515625 -20.046875 C 21.265625 -21.023438 22.066406 -22.144531 22.921875 -23.40625 C 23.347656 -24.007812 23.785156 -24.632812 24.234375 -25.28125 C 24.691406 -25.894531 25.144531 -26.535156 25.59375 -27.203125 C 26.050781 -27.867188 26.503906 -28.519531 26.953125 -29.15625 C 27.378906 -29.769531 27.804688 -30.382812 28.234375 -31 C 29.085938 -32.226562 29.890625 -33.363281 30.640625 -34.40625 C 31.359375 -35.4375 31.957031 -36.285156 32.4375 -36.953125 L 32.4375 -37.078125 C 32.84375 -36.835938 33.125 -36.476562 33.28125 -36 C 33.414062 -35.519531 33.535156 -35.039062 33.640625 -34.5625 C 33.742188 -34.050781 33.890625 -33.597656 34.078125 -33.203125 C 34.234375 -32.796875 34.539062 -32.539062 35 -32.4375 L 18.078125 -8.125 C 17.546875 -7.238281 17.265625 -6.625 17.234375 -6.28125 C 17.179688 -5.90625 17.316406 -5.742188 17.640625 -5.796875 C 18.015625 -5.828125 18.535156 -6.066406 19.203125 -6.515625 C 19.867188 -6.941406 20.546875 -7.4375 21.234375 -8 C 21.585938 -8.269531 21.910156 -8.535156 22.203125 -8.796875 C 22.492188 -9.035156 22.773438 -9.273438 23.046875 -9.515625 C 23.304688 -9.753906 23.519531 -9.957031 23.6875 -10.125 L 23.953125 -10.40625 C 23.265625 -8.71875 22.441406 -7.207031 21.484375 -5.875 C 20.523438 -4.539062 19.535156 -3.445312 18.515625 -2.59375 C 17.472656 -1.71875 16.472656 -1.09375 15.515625 -0.71875 C 14.535156 -0.34375 13.695312 -0.273438 13 -0.515625 C 12.195312 -0.785156 11.648438 -1.535156 11.359375 -2.765625 C 11.085938 -3.910156 11.273438 -5.65625 11.921875 -8 C 11.515625 -7.226562 10.925781 -6.398438 10.15625 -5.515625 C 9.351562 -4.640625 8.488281 -3.816406 7.5625 -3.046875 C 6.601562 -2.265625 5.628906 -1.625 4.640625 -1.125 C 3.628906 -0.582031 2.707031 -0.3125 1.875 -0.3125 Z M 7.640625 -8 C 8.359375 -7.945312 9.144531 -8.175781 10 -8.6875 C 10.820312 -9.164062 11.675781 -9.800781 12.5625 -10.59375 C 13.414062 -11.375 14.253906 -12.242188 15.078125 -13.203125 C 15.898438 -14.128906 16.660156 -15.035156 17.359375 -15.921875 L 17.3125 -15.953125 C 16.757812 -15.640625 16.296875 -15.414062 15.921875 -15.28125 C 15.515625 -15.144531 15.007812 -15.15625 14.40625 -15.3125 C 15.363281 -16.539062 15.84375 -17.488281 15.84375 -18.15625 C 15.84375 -18.800781 15.585938 -19.148438 15.078125 -19.203125 C 14.546875 -19.253906 13.945312 -19.132812 13.28125 -18.84375 C 12.613281 -18.550781 11.921875 -18.097656 11.203125 -17.484375 C 10.453125 -16.835938 9.71875 -16.007812 9 -15 C 8.625 -14.488281 8.289062 -13.941406 8 -13.359375 C 7.675781 -12.742188 7.410156 -12.15625 7.203125 -11.59375 C 6.960938 -11.007812 6.800781 -10.476562 6.71875 -10 C 6.632812 -9.519531 6.632812 -9.144531 6.71875 -8.875 C 6.875 -8.34375 7.179688 -8.050781 7.640625 -8 Z M 7.640625 -8 "/></g></g></g><g fill="#000000" fill-opacity="1"><g transform="translate(327.443127, 179.255878)"><g><path d="M 8.28125 -0.796875 C 7 -0.234375 5.734375 0.015625 4.484375 -0.046875 C 3.222656 -0.0976562 2.207031 -0.457031 1.4375 -1.125 C 0.664062 -1.789062 0.117188 -2.613281 -0.203125 -3.59375 C -0.523438 -4.5625 -0.628906 -5.601562 -0.515625 -6.71875 C -0.441406 -7.84375 -0.164062 -8.894531 0.3125 -9.875 C 0.769531 -10.832031 1.398438 -11.644531 2.203125 -12.3125 C 3.003906 -13.007812 3.9375 -13.375 5 -13.40625 C 5.507812 -13.425781 5.976562 -13.332031 6.40625 -13.125 C 6.800781 -12.90625 7.101562 -12.632812 7.3125 -12.3125 C 7.53125 -11.96875 7.640625 -11.609375 7.640625 -11.234375 C 7.640625 -10.804688 7.503906 -10.445312 7.234375 -10.15625 C 6.890625 -10.5625 6.476562 -10.628906 6 -10.359375 C 5.488281 -10.066406 5.101562 -9.640625 4.84375 -9.078125 C 4.519531 -8.410156 4.503906 -7.863281 4.796875 -7.4375 C 5.066406 -7.007812 5.492188 -6.757812 6.078125 -6.6875 C 6.640625 -6.570312 7.28125 -6.675781 8 -7 C 8.71875 -7.289062 9.359375 -7.851562 9.921875 -8.6875 C 10.398438 -9.375 10.851562 -10.289062 11.28125 -11.4375 C 11.675781 -12.5625 12.019531 -14.003906 12.3125 -15.765625 C 11.570312 -15.523438 10.851562 -15.335938 10.15625 -15.203125 C 9.46875 -15.066406 8.816406 -15.023438 8.203125 -15.078125 C 7.585938 -15.128906 7.066406 -15.273438 6.640625 -15.515625 C 6.179688 -15.734375 5.863281 -16.066406 5.6875 -16.515625 C 6.164062 -16.410156 6.679688 -16.332031 7.234375 -16.28125 C 7.796875 -16.195312 8.382812 -16.179688 9 -16.234375 C 9.582031 -16.265625 10.179688 -16.347656 10.796875 -16.484375 C 11.410156 -16.617188 12 -16.832031 12.5625 -17.125 C 12.644531 -17.519531 12.832031 -18.023438 13.125 -18.640625 C 13.382812 -19.222656 13.71875 -19.835938 14.125 -20.484375 C 14.5 -21.117188 14.925781 -21.757812 15.40625 -22.40625 C 15.882812 -23.007812 16.375 -23.554688 16.875 -24.046875 C 17.351562 -24.523438 17.832031 -24.882812 18.3125 -25.125 C 18.769531 -25.332031 19.195312 -25.367188 19.59375 -25.234375 C 20.070312 -25.046875 20.394531 -24.796875 20.5625 -24.484375 C 20.71875 -24.128906 20.757812 -23.738281 20.6875 -23.3125 C 20.601562 -22.894531 20.425781 -22.441406 20.15625 -21.953125 C 19.863281 -21.472656 19.53125 -20.992188 19.15625 -20.515625 C 18.59375 -19.796875 18.007812 -19.15625 17.40625 -18.59375 C 16.757812 -18.007812 16.25 -17.613281 15.875 -17.40625 L 15.796875 -17.4375 C 15.691406 -16.90625 15.585938 -16.359375 15.484375 -15.796875 C 15.367188 -15.210938 15.257812 -14.613281 15.15625 -14 C 14.914062 -12.75 14.632812 -11.507812 14.3125 -10.28125 C 14 -9.03125 13.613281 -7.800781 13.15625 -6.59375 C 12.707031 -5.425781 12.09375 -4.304688 11.3125 -3.234375 C 10.539062 -2.171875 9.53125 -1.359375 8.28125 -0.796875 Z M 16.125 -18.921875 C 17.238281 -19.585938 18.09375 -20.332031 18.6875 -21.15625 C 18.789062 -21.289062 18.921875 -21.519531 19.078125 -21.84375 C 19.210938 -22.15625 19.347656 -22.488281 19.484375 -22.84375 C 19.535156 -23.03125 19.570312 -23.203125 19.59375 -23.359375 C 19.625 -23.492188 19.65625 -23.628906 19.6875 -23.765625 C 19.707031 -24.023438 19.640625 -24.179688 19.484375 -24.234375 C 19.296875 -24.265625 19.03125 -24.109375 18.6875 -23.765625 C 18.5 -23.546875 18.3125 -23.316406 18.125 -23.078125 C 17.9375 -22.835938 17.75 -22.570312 17.5625 -22.28125 L 17.5625 -22.359375 C 17.21875 -21.828125 16.9375 -21.28125 16.71875 -20.71875 C 16.476562 -20.132812 16.28125 -19.535156 16.125 -18.921875 Z M 16.125 -18.921875 "/></g></g></g><g fill="#000000" fill-opacity="1"><g transform="translate(211.649442, 222.877378)"><g><path d="M 23.21875 -0.703125 C 22.070312 -0.671875 21.097656 -0.832031 20.296875 -1.1875 C 19.460938 -1.507812 18.800781 -1.945312 18.3125 -2.5 C 17.78125 -3.039062 17.425781 -3.65625 17.25 -4.34375 C 17.050781 -5.03125 17.007812 -5.722656 17.125 -6.421875 C 17.207031 -7.015625 17.429688 -7.597656 17.796875 -8.171875 C 18.117188 -8.710938 18.570312 -9.1875 19.15625 -9.59375 C 19.726562 -9.988281 20.421875 -10.289062 21.234375 -10.5 C 22.066406 -10.675781 23 -10.726562 24.03125 -10.65625 C 23.625 -10.25 23.367188 -9.800781 23.265625 -9.3125 C 23.171875 -8.820312 23.207031 -8.382812 23.375 -8 C 23.519531 -7.570312 23.769531 -7.21875 24.125 -6.9375 C 24.488281 -6.65625 24.910156 -6.503906 25.390625 -6.484375 C 25.835938 -6.441406 26.335938 -6.566406 26.890625 -6.859375 C 27.453125 -7.109375 28.03125 -7.5625 28.625 -8.21875 C 29.09375 -8.738281 29.460938 -9.347656 29.734375 -10.046875 C 29.984375 -10.742188 30.054688 -11.492188 29.953125 -12.296875 C 29.828125 -13.066406 29.484375 -13.867188 28.921875 -14.703125 C 28.367188 -15.546875 27.507812 -16.363281 26.34375 -17.15625 C 25.882812 -17.28125 25.425781 -17.5 24.96875 -17.8125 C 26.882812 -17.78125 28.554688 -18.0625 29.984375 -18.65625 C 31.410156 -19.257812 32.601562 -20.039062 33.5625 -21 C 34.519531 -21.945312 35.253906 -23.039062 35.765625 -24.28125 C 36.234375 -25.5 36.46875 -26.734375 36.46875 -27.984375 C 36.445312 -29.234375 36.195312 -30.425781 35.71875 -31.5625 C 35.226562 -32.675781 34.492188 -33.628906 33.515625 -34.421875 C 32.535156 -35.203125 31.304688 -35.757812 29.828125 -36.09375 C 28.347656 -36.425781 26.613281 -36.40625 24.625 -36.03125 C 23.570312 -35.84375 22.488281 -35.460938 21.375 -34.890625 C 20.28125 -34.328125 19.273438 -33.675781 18.359375 -32.9375 C 17.421875 -32.195312 16.628906 -31.40625 15.984375 -30.5625 C 15.316406 -29.6875 14.925781 -28.863281 14.8125 -28.09375 C 14.664062 -27.300781 14.847656 -26.609375 15.359375 -26.015625 C 15.828125 -25.390625 16.742188 -24.945312 18.109375 -24.6875 L 19.390625 -24.71875 C 18.296875 -23.757812 17.316406 -23 16.453125 -22.4375 C 15.585938 -21.863281 14.8125 -21.445312 14.125 -21.1875 C 12.800781 -20.707031 11.785156 -20.695312 11.078125 -21.15625 C 10.429688 -21.550781 9.972656 -22.109375 9.703125 -22.828125 C 9.421875 -23.503906 9.320312 -24.285156 9.40625 -25.171875 C 9.46875 -26.054688 9.707031 -27 10.125 -28 C 10.5625 -29 11.148438 -29.972656 11.890625 -30.921875 C 12.617188 -31.847656 13.519531 -32.742188 14.59375 -33.609375 C 15.632812 -34.453125 16.835938 -35.203125 18.203125 -35.859375 C 19.554688 -36.503906 21.050781 -37 22.6875 -37.34375 C 24.320312 -37.675781 26.113281 -37.816406 28.0625 -37.765625 C 29.457031 -37.722656 31 -37.550781 32.6875 -37.25 C 34.375 -36.945312 35.988281 -36.457031 37.53125 -35.78125 C 39.070312 -35.101562 40.390625 -34.234375 41.484375 -33.171875 C 42.554688 -32.109375 43.191406 -30.800781 43.390625 -29.25 L 43.359375 -29.296875 C 43.515625 -28.148438 43.40625 -27.050781 43.03125 -26 C 42.664062 -24.945312 42.117188 -23.96875 41.390625 -23.0625 C 40.671875 -22.144531 39.8125 -21.332031 38.8125 -20.625 C 37.789062 -19.875 36.734375 -19.226562 35.640625 -18.6875 C 34.503906 -18.144531 33.367188 -17.726562 32.234375 -17.4375 C 31.054688 -17.113281 29.960938 -16.941406 28.953125 -16.921875 C 29.972656 -16.535156 30.789062 -15.925781 31.40625 -15.09375 C 32.019531 -14.25 32.425781 -13.300781 32.625 -12.25 C 32.820312 -11.1875 32.800781 -10.078125 32.5625 -8.921875 C 32.332031 -7.765625 31.882812 -6.6875 31.21875 -5.6875 C 30.257812 -4.21875 29.078125 -3.050781 27.671875 -2.1875 C 26.960938 -1.738281 26.234375 -1.382812 25.484375 -1.125 C 24.722656 -0.863281 23.96875 -0.722656 23.21875 -0.703125 Z M 3.03125 -0.765625 C 2.050781 -1.222656 1.273438 -1.828125 0.703125 -2.578125 C 0.0859375 -3.316406 -0.335938 -4.171875 -0.578125 -5.140625 C -0.816406 -6.097656 -0.910156 -7.097656 -0.859375 -8.140625 C -0.804688 -9.179688 -0.632812 -10.226562 -0.34375 -11.28125 C -0.0703125 -12.300781 0.316406 -13.285156 0.828125 -14.234375 C 1.296875 -15.148438 1.882812 -15.992188 2.59375 -16.765625 C 3.25 -17.472656 3.988281 -18.066406 4.8125 -18.546875 C 4.570312 -16.898438 4.742188 -15.53125 5.328125 -14.4375 C 5.640625 -13.863281 6.054688 -13.394531 6.578125 -13.03125 C 7.097656 -12.632812 7.78125 -12.394531 8.625 -12.3125 C 9.757812 -12.207031 10.84375 -12.347656 11.875 -12.734375 C 12.90625 -13.109375 13.941406 -13.648438 14.984375 -14.359375 C 16.003906 -15.085938 17.023438 -15.921875 18.046875 -16.859375 C 19.066406 -17.765625 20.070312 -18.738281 21.0625 -19.78125 C 22.070312 -20.820312 23.101562 -21.847656 24.15625 -22.859375 C 25.15625 -23.835938 26.207031 -24.753906 27.3125 -25.609375 C 28.414062 -26.472656 29.503906 -27.210938 30.578125 -27.828125 C 31.628906 -28.421875 32.753906 -28.828125 33.953125 -29.046875 C 32.347656 -28.066406 30.960938 -27.050781 29.796875 -26 C 28.585938 -24.957031 27.476562 -23.8125 26.46875 -22.5625 L 26.46875 -22.640625 C 25.800781 -21.828125 25.171875 -21 24.578125 -20.15625 C 23.960938 -19.289062 23.375 -18.394531 22.8125 -17.46875 C 21.664062 -15.625 20.570312 -13.875 19.53125 -12.21875 C 18.476562 -10.550781 17.453125 -8.988281 16.453125 -7.53125 C 15.429688 -6.0625 14.382812 -4.773438 13.3125 -3.671875 C 12.21875 -2.578125 11.109375 -1.695312 9.984375 -1.03125 C 9.429688 -0.695312 8.847656 -0.453125 8.234375 -0.296875 C 7.597656 -0.148438 6.972656 -0.0664062 6.359375 -0.046875 C 5.742188 -0.0234375 5.15625 -0.09375 4.59375 -0.25 C 4.03125 -0.351562 3.507812 -0.523438 3.03125 -0.765625 Z M 3.03125 -0.765625 "/></g></g></g><g fill="#000000" fill-opacity="1"><g transform="translate(248.632389, 221.882728)"><g><path d="M 2.765625 -0.28125 C 1.972656 -0.414062 1.332031 -0.800781 0.84375 -1.4375 C 0.320312 -2.019531 0.03125 -2.953125 -0.03125 -4.234375 C -0.0820312 -5.359375 0.160156 -6.609375 0.703125 -7.984375 C 1.253906 -9.359375 1.960938 -10.738281 2.828125 -12.125 C 3.453125 -13.125 4.226562 -14.1875 5.15625 -15.3125 C 6.050781 -16.425781 7.066406 -17.453125 8.203125 -18.390625 C 9.316406 -19.304688 10.519531 -20.070312 11.8125 -20.6875 C 13.082031 -21.289062 14.394531 -21.582031 15.75 -21.5625 C 16.582031 -21.53125 17.132812 -21.265625 17.40625 -20.765625 C 17.6875 -20.265625 17.796875 -19.664062 17.734375 -18.96875 C 17.679688 -18.269531 17.519531 -17.570312 17.25 -16.875 C 16.945312 -16.144531 16.65625 -15.566406 16.375 -15.140625 C 15.695312 -14.128906 14.847656 -13.273438 13.828125 -12.578125 C 12.804688 -11.890625 11.722656 -11.554688 10.578125 -11.578125 L 10.6875 -11.703125 C 10.101562 -11.703125 9.628906 -11.867188 9.265625 -12.203125 C 8.921875 -12.523438 8.804688 -13.070312 8.921875 -13.84375 C 8.742188 -13.488281 8.578125 -13.125 8.421875 -12.75 C 8.242188 -12.375 8.082031 -11.96875 7.9375 -11.53125 C 7.34375 -9.84375 7.175781 -8.492188 7.4375 -7.484375 C 7.707031 -6.484375 8.3125 -5.925781 9.25 -5.8125 C 10.1875 -5.675781 11.378906 -6.023438 12.828125 -6.859375 C 14.242188 -7.703125 15.847656 -9.148438 17.640625 -11.203125 C 17.203125 -10.421875 16.660156 -9.578125 16.015625 -8.671875 C 15.367188 -7.773438 14.671875 -6.890625 13.921875 -6.015625 C 13.148438 -5.140625 12.316406 -4.332031 11.421875 -3.59375 C 10.515625 -2.8125 9.59375 -2.144531 8.65625 -1.59375 C 7.675781 -1.03125 6.695312 -0.628906 5.71875 -0.390625 C 4.707031 -0.117188 3.722656 -0.0820312 2.765625 -0.28125 Z M 10.40625 -13.703125 C 10.882812 -13.648438 11.503906 -13.8125 12.265625 -14.1875 C 13.023438 -14.550781 13.796875 -15.128906 14.578125 -15.921875 C 14.992188 -16.359375 15.367188 -16.8125 15.703125 -17.28125 C 16.015625 -17.71875 16.234375 -18.125 16.359375 -18.5 C 16.597656 -19.28125 16.265625 -19.640625 15.359375 -19.578125 L 15.328125 -19.578125 C 14.734375 -19.515625 13.988281 -19.253906 13.09375 -18.796875 C 12.195312 -18.347656 11.300781 -17.53125 10.40625 -16.34375 C 9.757812 -15.539062 9.472656 -14.898438 9.546875 -14.421875 C 9.609375 -13.941406 9.894531 -13.703125 10.40625 -13.703125 Z M 10.40625 -13.703125 "/></g></g></g><g fill="#000000" fill-opacity="1"><g transform="translate(266.544132, 221.400995)"><g><path d="M -3.078125 18.09375 C -3.609375 18.238281 -4.085938 18.28125 -4.515625 18.21875 C -4.972656 18.144531 -5.363281 17.992188 -5.6875 17.765625 C -6.039062 17.566406 -6.34375 17.296875 -6.59375 16.953125 C -6.84375 16.640625 -7.023438 16.296875 -7.140625 15.921875 C -7.421875 15.210938 -7.535156 14.382812 -7.484375 13.4375 C -7.429688 12.53125 -7.175781 11.566406 -6.71875 10.546875 C -6.289062 9.523438 -5.585938 8.425781 -4.609375 7.25 C -3.628906 6.082031 -2.207031 4.910156 -0.34375 3.734375 C 1.46875 2.585938 3.789062 1.632812 6.625 0.875 L 11.0625 -5.5 C 10.695312 -5.164062 10.191406 -4.632812 9.546875 -3.90625 C 8.867188 -3.132812 8.097656 -2.40625 7.234375 -1.71875 C 6.347656 -1 5.414062 -0.414062 4.4375 0.03125 C 3.96875 0.269531 3.476562 0.40625 2.96875 0.4375 C 2.46875 0.476562 2.003906 0.4375 1.578125 0.3125 C 1.140625 0.1875 0.757812 0 0.4375 -0.25 C 0.101562 -0.507812 -0.144531 -0.835938 -0.3125 -1.234375 C -0.65625 -1.972656 -0.539062 -3.054688 0.03125 -4.484375 C 0.238281 -4.921875 0.457031 -5.328125 0.6875 -5.703125 C 0.914062 -6.054688 1.132812 -6.359375 1.34375 -6.609375 L 8.140625 -16.03125 L 8.140625 -16.078125 C 8.472656 -16.566406 8.769531 -17 9.03125 -17.375 C 9.28125 -17.757812 9.457031 -18.109375 9.5625 -18.421875 C 9.65625 -18.722656 9.65625 -19.003906 9.5625 -19.265625 C 9.476562 -19.535156 9.285156 -19.8125 8.984375 -20.09375 C 9.585938 -20.300781 10.1875 -20.382812 10.78125 -20.34375 C 11.34375 -20.28125 11.84375 -20.066406 12.28125 -19.703125 C 12.664062 -19.390625 12.957031 -18.96875 13.15625 -18.4375 C 13.320312 -17.882812 13.351562 -17.210938 13.25 -16.421875 C 13.1875 -15.953125 12.9375 -15.328125 12.5 -14.546875 C 12.039062 -13.734375 11.515625 -12.863281 10.921875 -11.9375 C 10.328125 -11.019531 9.742188 -10.097656 9.171875 -9.171875 C 8.578125 -8.222656 8.113281 -7.410156 7.78125 -6.734375 C 7.5 -6.109375 7.390625 -5.664062 7.453125 -5.40625 C 7.523438 -5.0625 7.691406 -4.878906 7.953125 -4.859375 C 8.515625 -4.785156 9.082031 -4.9375 9.65625 -5.3125 C 10.238281 -5.664062 10.800781 -6.117188 11.34375 -6.671875 C 11.863281 -7.210938 12.34375 -7.796875 12.78125 -8.421875 L 13.828125 -9.96875 C 14.410156 -10.875 15.007812 -11.769531 15.625 -12.65625 C 16.21875 -13.5625 16.804688 -14.453125 17.390625 -15.328125 C 17.984375 -16.191406 18.59375 -17.070312 19.21875 -17.96875 C 19.800781 -18.863281 20.378906 -19.757812 20.953125 -20.65625 L 26.59375 -20.8125 C 26.164062 -20.113281 25.679688 -19.351562 25.140625 -18.53125 C 24.597656 -17.6875 24.023438 -16.773438 23.421875 -15.796875 C 22.191406 -13.847656 20.890625 -11.773438 19.515625 -9.578125 C 18.109375 -7.347656 16.632812 -5.050781 15.09375 -2.6875 C 14.320312 -1.488281 13.554688 -0.332031 12.796875 0.78125 C 12.023438 1.914062 11.269531 3.03125 10.53125 4.125 C 10.3125 4.394531 10.078125 4.71875 9.828125 5.09375 C 9.535156 5.5 9.21875 5.960938 8.875 6.484375 C 8.144531 7.546875 7.328125 8.660156 6.421875 9.828125 C 5.492188 11.035156 4.488281 12.238281 3.40625 13.4375 C 2.3125 14.644531 1.21875 15.648438 0.125 16.453125 C -0.976562 17.273438 -2.046875 17.820312 -3.078125 18.09375 Z M -3.671875 12.234375 C -3.210938 12.378906 -2.695312 12.28125 -2.125 11.9375 C -1.5625 11.613281 -0.972656 11.144531 -0.359375 10.53125 C 0.242188 9.9375 0.851562 9.242188 1.46875 8.453125 C 2.0625 7.648438 2.628906 6.875 3.171875 6.125 C 3.453125 5.738281 3.722656 5.367188 3.984375 5.015625 C 4.210938 4.660156 4.425781 4.320312 4.625 4 L 5.59375 2.578125 L 5.5625 2.546875 C 4.257812 3.054688 2.9375 3.628906 1.59375 4.265625 C 0.25 4.953125 -0.960938 5.804688 -2.046875 6.828125 C -2.398438 7.148438 -2.765625 7.570312 -3.140625 8.09375 C -3.554688 8.632812 -3.90625 9.175781 -4.1875 9.71875 C -4.457031 10.28125 -4.578125 10.789062 -4.546875 11.25 C -4.535156 11.726562 -4.242188 12.054688 -3.671875 12.234375 Z M -3.671875 12.234375 "/></g></g></g><g fill="#000000" fill-opacity="1"><g transform="translate(286.734827, 220.85797)"><g><path d="M 1.40625 0.015625 C 0.625 -0.148438 -0.0664062 -0.5625 -0.671875 -1.21875 C -1.273438 -1.84375 -1.554688 -2.800781 -1.515625 -4.09375 C -1.472656 -4.832031 -1.332031 -5.617188 -1.09375 -6.453125 C -0.875 -7.285156 -0.585938 -8.109375 -0.234375 -8.921875 C 0.117188 -9.703125 0.5 -10.445312 0.90625 -11.15625 C 1.3125 -11.851562 1.707031 -12.445312 2.09375 -12.9375 C 2.96875 -14.09375 3.9375 -15.160156 5 -16.140625 C 6.050781 -17.128906 7.140625 -18.015625 8.265625 -18.796875 C 9.359375 -19.546875 10.460938 -20.148438 11.578125 -20.609375 C 12.679688 -21.066406 13.738281 -21.289062 14.75 -21.28125 C 15.125 -21.289062 15.460938 -21.207031 15.765625 -21.03125 C 16.066406 -20.832031 16.300781 -20.570312 16.46875 -20.25 C 16.71875 -19.8125 16.773438 -19.289062 16.640625 -18.6875 C 16.484375 -18.101562 15.984375 -17.585938 15.140625 -17.140625 C 15.296875 -17.703125 15.328125 -18.179688 15.234375 -18.578125 C 15.117188 -18.953125 14.910156 -19.226562 14.609375 -19.40625 C 14.003906 -19.726562 13.207031 -19.601562 12.21875 -19.03125 C 10.957031 -18.21875 9.832031 -17.316406 8.84375 -16.328125 C 7.863281 -15.304688 7.039062 -14.273438 6.375 -13.234375 C 5.644531 -12.085938 5.125 -11.070312 4.8125 -10.1875 C 4.488281 -9.269531 4.347656 -8.476562 4.390625 -7.8125 C 4.398438 -7.144531 4.585938 -6.628906 4.953125 -6.265625 C 5.285156 -5.867188 5.75 -5.648438 6.34375 -5.609375 C 6.976562 -5.578125 7.734375 -5.734375 8.609375 -6.078125 C 9.472656 -6.410156 10.457031 -7.007812 11.5625 -7.875 C 11.300781 -8.5625 11.253906 -9.414062 11.421875 -10.4375 C 11.566406 -11.457031 11.859375 -12.410156 12.296875 -13.296875 C 12.648438 -14.085938 13.066406 -14.738281 13.546875 -15.25 C 14.046875 -15.769531 14.535156 -15.988281 15.015625 -15.90625 C 15.429688 -15.832031 15.609375 -15.320312 15.546875 -14.375 C 15.484375 -13.5 15.207031 -12.414062 14.71875 -11.125 C 14.582031 -10.789062 14.441406 -10.46875 14.296875 -10.15625 C 14.140625 -9.832031 13.960938 -9.503906 13.765625 -9.171875 C 13.828125 -8.640625 14.085938 -8.457031 14.546875 -8.625 C 14.984375 -8.8125 15.488281 -9.125 16.0625 -9.5625 C 16.613281 -10.007812 17.148438 -10.476562 17.671875 -10.96875 C 17.929688 -11.21875 18.140625 -11.421875 18.296875 -11.578125 C 18.429688 -11.734375 18.519531 -11.84375 18.5625 -11.90625 L 18.625 -11.828125 C 18.519531 -11.503906 18.34375 -11.113281 18.09375 -10.65625 C 17.832031 -10.164062 17.523438 -9.675781 17.171875 -9.1875 C 16.773438 -8.664062 16.367188 -8.175781 15.953125 -7.71875 C 15.546875 -7.25 15.117188 -6.890625 14.671875 -6.640625 C 14.253906 -6.359375 13.816406 -6.210938 13.359375 -6.203125 C 12.929688 -6.191406 12.554688 -6.378906 12.234375 -6.765625 C 11.648438 -5.742188 10.914062 -4.789062 10.03125 -3.90625 C 9.144531 -3.03125 8.203125 -2.269531 7.203125 -1.625 C 6.179688 -0.988281 5.164062 -0.523438 4.15625 -0.234375 C 3.15625 0.078125 2.238281 0.160156 1.40625 0.015625 Z M 1.40625 0.015625 "/></g></g></g><g fill="#000000" fill-opacity="1"><g transform="translate(304.64657, 220.376237)"><g><path d="M 5.40625 -14.640625 C 5.6875 -15.148438 5.914062 -15.617188 6.09375 -16.046875 C 6.269531 -16.484375 6.367188 -16.90625 6.390625 -17.3125 C 6.390625 -18.082031 6.054688 -18.9375 5.390625 -19.875 L 5.515625 -19.71875 C 6.566406 -20.414062 7.460938 -20.878906 8.203125 -21.109375 C 8.941406 -21.316406 9.539062 -21.359375 10 -21.234375 C 10.695312 -21.046875 11.117188 -20.617188 11.265625 -19.953125 C 11.390625 -19.296875 11.296875 -18.398438 10.984375 -17.265625 C 11.671875 -18.253906 12.453125 -19.101562 13.328125 -19.8125 C 14.160156 -20.53125 15.023438 -21.054688 15.921875 -21.390625 C 16.816406 -21.710938 17.703125 -21.832031 18.578125 -21.75 C 19.472656 -21.644531 20.28125 -21.28125 21 -20.65625 C 21.332031 -20.34375 21.582031 -19.960938 21.75 -19.515625 C 21.90625 -19.046875 21.9375 -18.445312 21.84375 -17.71875 C 21.789062 -17.363281 21.578125 -16.835938 21.203125 -16.140625 C 20.804688 -15.429688 20.351562 -14.644531 19.84375 -13.78125 C 19.300781 -12.90625 18.765625 -12.007812 18.234375 -11.09375 C 17.703125 -10.164062 17.257812 -9.335938 16.90625 -8.609375 C 16.550781 -7.828125 16.363281 -7.207031 16.34375 -6.75 C 16.332031 -6.25 16.566406 -6.007812 17.046875 -6.03125 C 17.367188 -6.03125 17.6875 -6.128906 18 -6.328125 C 18.320312 -6.492188 18.640625 -6.703125 18.953125 -6.953125 C 19.078125 -7.085938 19.21875 -7.226562 19.375 -7.375 C 19.53125 -7.476562 19.675781 -7.597656 19.8125 -7.734375 C 20.09375 -8.003906 20.351562 -8.203125 20.59375 -8.328125 C 20.207031 -7.773438 19.769531 -7.15625 19.28125 -6.46875 C 18.789062 -5.789062 18.273438 -5.128906 17.734375 -4.484375 C 17.160156 -3.796875 16.585938 -3.164062 16.015625 -2.59375 C 15.453125 -1.988281 14.894531 -1.507812 14.34375 -1.15625 C 13.820312 -0.78125 13.238281 -0.550781 12.59375 -0.46875 C 11.957031 -0.363281 11.347656 -0.375 10.765625 -0.5 C 9.867188 -0.675781 9.226562 -0.972656 8.84375 -1.390625 C 8.4375 -1.804688 8.203125 -2.28125 8.140625 -2.8125 C 8.066406 -3.351562 8.128906 -3.929688 8.328125 -4.546875 C 8.492188 -5.140625 8.742188 -5.734375 9.078125 -6.328125 C 9.378906 -6.921875 9.722656 -7.492188 10.109375 -8.046875 C 10.460938 -8.585938 10.78125 -9.054688 11.0625 -9.453125 L 16.703125 -17.421875 C 17.085938 -17.972656 17.191406 -18.441406 17.015625 -18.828125 C 16.816406 -19.203125 16.453125 -19.40625 15.921875 -19.4375 C 15.097656 -19.46875 14.3125 -19.179688 13.5625 -18.578125 C 12.769531 -17.960938 11.859375 -16.910156 10.828125 -15.421875 C 9.804688 -13.929688 8.566406 -11.9375 7.109375 -9.4375 C 5.660156 -6.914062 3.820312 -3.785156 1.59375 -0.046875 L -3.921875 0.109375 Z M 5.40625 -14.640625 "/></g></g></g><g fill="#000000" fill-opacity="1"><g transform="translate(326.796358, 219.780522)"><g><path d="M 1.859375 -0.359375 C 1.046875 -0.316406 0.363281 -0.597656 -0.1875 -1.203125 C -0.738281 -1.765625 -1.03125 -2.789062 -1.0625 -4.28125 C -1.125 -5.40625 -0.882812 -6.660156 -0.34375 -8.046875 C 0.21875 -9.410156 0.929688 -10.789062 1.796875 -12.1875 C 2.410156 -13.175781 3.207031 -14.234375 4.1875 -15.359375 C 5.175781 -16.460938 6.269531 -17.484375 7.46875 -18.421875 C 8.664062 -19.359375 9.953125 -20.132812 11.328125 -20.75 C 12.671875 -21.351562 14.023438 -21.644531 15.390625 -21.625 C 16.035156 -21.613281 16.546875 -21.507812 16.921875 -21.3125 C 17.304688 -21.101562 17.578125 -20.851562 17.734375 -20.5625 C 17.898438 -20.28125 18.03125 -19.992188 18.125 -19.703125 C 18.1875 -19.378906 18.222656 -19.070312 18.234375 -18.78125 L 18.234375 -18.34375 C 18.242188 -18.207031 18.238281 -18.085938 18.21875 -17.984375 L 19.984375 -20.59375 C 20.691406 -21.582031 21.457031 -22.71875 22.28125 -24 C 22.6875 -24.625 23.109375 -25.265625 23.546875 -25.921875 C 23.984375 -26.546875 24.414062 -27.195312 24.84375 -27.875 C 25.28125 -28.550781 25.71875 -29.210938 26.15625 -29.859375 C 26.5625 -30.484375 26.972656 -31.113281 27.390625 -31.75 C 28.210938 -33 28.984375 -34.15625 29.703125 -35.21875 C 30.390625 -36.269531 30.960938 -37.132812 31.421875 -37.8125 L 31.421875 -37.9375 C 31.835938 -37.707031 32.128906 -37.351562 32.296875 -36.875 C 32.441406 -36.40625 32.578125 -35.929688 32.703125 -35.453125 C 32.816406 -34.941406 32.972656 -34.492188 33.171875 -34.109375 C 33.335938 -33.703125 33.648438 -33.453125 34.109375 -33.359375 L 17.859375 -8.609375 C 17.347656 -7.710938 17.082031 -7.09375 17.0625 -6.75 C 17.019531 -6.375 17.160156 -6.210938 17.484375 -6.265625 C 17.859375 -6.304688 18.375 -6.5625 19.03125 -7.03125 C 19.6875 -7.476562 20.347656 -7.992188 21.015625 -8.578125 C 21.359375 -8.847656 21.671875 -9.117188 21.953125 -9.390625 C 22.234375 -9.640625 22.507812 -9.890625 22.78125 -10.140625 C 23.03125 -10.378906 23.238281 -10.585938 23.40625 -10.765625 L 23.65625 -11.046875 C 23.007812 -9.335938 22.226562 -7.804688 21.3125 -6.453125 C 20.394531 -5.085938 19.441406 -3.96875 18.453125 -3.09375 C 17.429688 -2.1875 16.445312 -1.535156 15.5 -1.140625 C 14.53125 -0.734375 13.691406 -0.640625 12.984375 -0.859375 C 12.171875 -1.109375 11.601562 -1.847656 11.28125 -3.078125 C 10.976562 -4.210938 11.117188 -5.960938 11.703125 -8.328125 C 11.316406 -7.535156 10.753906 -6.6875 10.015625 -5.78125 C 9.234375 -4.882812 8.390625 -4.039062 7.484375 -3.25 C 6.546875 -2.445312 5.585938 -1.78125 4.609375 -1.25 C 3.609375 -0.675781 2.691406 -0.378906 1.859375 -0.359375 Z M 7.421875 -8.203125 C 8.140625 -8.171875 8.921875 -8.421875 9.765625 -8.953125 C 10.578125 -9.453125 11.414062 -10.113281 12.28125 -10.9375 C 13.113281 -11.738281 13.925781 -12.628906 14.71875 -13.609375 C 15.519531 -14.554688 16.257812 -15.484375 16.9375 -16.390625 L 16.890625 -16.421875 C 16.335938 -16.085938 15.878906 -15.847656 15.515625 -15.703125 C 15.109375 -15.554688 14.601562 -15.554688 14 -15.703125 C 14.914062 -16.953125 15.367188 -17.910156 15.359375 -18.578125 C 15.335938 -19.222656 15.070312 -19.566406 14.5625 -19.609375 C 14.03125 -19.648438 13.4375 -19.515625 12.78125 -19.203125 C 12.113281 -18.890625 11.429688 -18.414062 10.734375 -17.78125 C 10.003906 -17.113281 9.289062 -16.265625 8.59375 -15.234375 C 8.238281 -14.722656 7.921875 -14.171875 7.640625 -13.578125 C 7.335938 -12.953125 7.085938 -12.351562 6.890625 -11.78125 C 6.671875 -11.195312 6.523438 -10.664062 6.453125 -10.1875 C 6.378906 -9.695312 6.390625 -9.320312 6.484375 -9.0625 C 6.648438 -8.53125 6.960938 -8.242188 7.421875 -8.203125 Z M 7.421875 -8.203125 "/></g></g></g></svg>